<?xml version="1.0" encoding="UTF-8" standalone="no"?>
<!-- Created with Inkscape (http://www.inkscape.org/) -->
<svg
   xmlns:dc="http://purl.org/dc/elements/1.1/"
   xmlns:cc="http://web.resource.org/cc/"
   xmlns:rdf="http://www.w3.org/1999/02/22-rdf-syntax-ns#"
   xmlns:svg="http://www.w3.org/2000/svg"
   xmlns="http://www.w3.org/2000/svg"
   xmlns:sodipodi="http://sodipodi.sourceforge.net/DTD/sodipodi-0.dtd"
   xmlns:inkscape="http://www.inkscape.org/namespaces/inkscape"
   width="1052.3622"
   height="744.09448"
   id="svg2"
   sodipodi:version="0.32"
   inkscape:version="0.45"
   sodipodi:docbase="/home/dasilva/www/opengrads.org/images"
   sodipodi:docname="og_WIKIlogo.svg"
   inkscape:export-filename="/home/daniel/birthday card.png"
   inkscape:export-xdpi="196.34"
   inkscape:export-ydpi="196.34"
   inkscape:output_extension="org.inkscape.output.svg.inkscape"
   version="1.0"
   sodipodi:modified="TRUE">
  <defs
     id="defs4" />
  <sodipodi:namedview
     id="base"
     pagecolor="#ffffff"
     bordercolor="#666666"
     borderopacity="1.0"
     inkscape:pageopacity="0.0"
     inkscape:pageshadow="2"
     inkscape:zoom="0.63951367"
     inkscape:cx="399.65583"
     inkscape:cy="526.18109"
     inkscape:document-units="px"
     inkscape:current-layer="layer1"
     inkscape:window-width="1280"
     inkscape:window-height="885"
     inkscape:window-x="0"
     inkscape:window-y="25"
     width="1052.3622px"
     height="744.09448px" />
  <metadata
     id="metadata7">
    <rdf:RDF>
      <cc:Work
         rdf:about="">
        <dc:format>image/svg+xml</dc:format>
        <dc:type
           rdf:resource="http://purl.org/dc/dcmitype/StillImage" />
      </cc:Work>
    </rdf:RDF>
  </metadata>
  <g
     inkscape:label="Layer 1"
     inkscape:groupmode="layer"
     id="layer1">
    <path
       style="fill:none;fill-opacity:0.75;fill-rule:evenodd;stroke:#000000;stroke-width:1pt;stroke-linecap:butt;stroke-linejoin:miter;stroke-opacity:1"
       d="M 107.18281,422.25716 C 108.06347,425.04837 104.13014,414.62549 108.26547,424.9638"
       id="path1339" />
    <path
       style="fill:none;fill-opacity:0.75;fill-rule:evenodd;stroke:#000000;stroke-width:1pt;stroke-linecap:butt;stroke-linejoin:miter;stroke-opacity:1"
       d="M 363.77197,634.45748 C 363.86643,634.41006 366.36702,635.56964 367.56126,636.08146"
       id="path1341" />
    <path
       style="fill:none;fill-opacity:0.75;fill-rule:evenodd;stroke:#000000;stroke-width:1pt;stroke-linecap:butt;stroke-linejoin:miter;stroke-opacity:1"
       d="M 590.58813,416.30256 C 590.58813,419.30993 590.58813,408.42324 590.58813,419.0092"
       id="path1343" />
    <g
       id="g3748"
       inkscape:export-filename="/home/dasilva/www/opengrads.org/images/og_WIKIlogo.png"
       inkscape:export-xdpi="37.380062"
       inkscape:export-ydpi="37.380062">
      <g
         transform="matrix(0.8693761,0,0,0.9581838,26.565318,62.188999)"
         id="g3716">
        <path
           style="fill:#f8f800;fill-opacity:1;fill-rule:evenodd;stroke:#000000;stroke-width:0.20432694pt;stroke-linecap:butt;stroke-linejoin:miter;stroke-opacity:1"
           d="M 278.48578,160.50827 C 278.48578,160.50827 296.43515,189.83402 304.21178,191.68862 C 311.98838,193.54319 312.24872,202.61647 309.08196,205.03283 C 305.91524,207.44917 300.42767,207.92759 295.53148,207.21306 C 290.63531,206.49847 286.21629,199.85667 285.91118,197.49334 C 285.60605,195.13 260.02615,168.28875 260.15338,166.70816 C 260.28062,165.12757 273.15727,159.01098 278.48578,160.50827 z "
           id="path2250"
           sodipodi:nodetypes="csssssc" />
        <path
           style="fill:#f8f800;fill-opacity:1;fill-rule:evenodd;stroke:#000000;stroke-width:0.20440238pt;stroke-linecap:butt;stroke-linejoin:miter;stroke-opacity:1"
           d="M 239.88671,153.72003 C 239.88671,153.72003 223.49221,181.38916 215.46274,183.05177 C 207.43331,184.71436 207.93392,193.3446 211.47444,195.68545 C 215.01493,198.0263 220.8335,198.55361 225.92756,197.93798 C 231.0216,197.32232 235.10716,191.06036 235.22663,188.81553 C 235.3461,186.57072 259.98674,161.36592 259.71782,159.86024 C 259.44888,158.35456 245.36914,152.36527 239.88671,153.72003 z "
           id="path2236"
           sodipodi:nodetypes="csssssc" />
        <path
           style="fill:#f8f800;fill-opacity:1;fill-rule:evenodd;stroke:#000000;stroke-width:0.22741928pt;stroke-linecap:butt;stroke-linejoin:miter;stroke-opacity:1"
           d="M 106.59972,148.07579 C 106.59972,148.07579 79.147373,174.32399 70.016272,174.26557 C 60.885226,174.20715 58.285208,183.69777 61.196005,187.06254 C 64.106775,190.42729 70.095105,192.35111 75.728695,192.86518 C 81.362275,193.37924 87.973698,187.52599 88.915161,185.11535 C 89.856634,182.70472 125.17265,161.04802 125.43342,159.35008 C 125.69415,157.65211 112.91399,147.87719 106.59972,148.07579 z "
           id="path2244"
           sodipodi:nodetypes="csssssc" />
        <path
           style="fill:#fffa0b;fill-opacity:1;fill-rule:evenodd;stroke:#000000;stroke-width:0.23002515pt;stroke-linecap:butt;stroke-linejoin:miter;stroke-opacity:1"
           d="M 138.34751,144.92173 C 138.34751,144.92173 98.937652,141.4869 89.304133,131.18238 C 79.670605,120.87788 65.658211,114.0082 50.770047,114.0082 C 35.881875,114.0082 27.124134,120.01916 24.496807,130.32368 C 21.869481,140.62819 28.875682,152.65013 42.888076,156.94366 C 56.90047,161.23721 67.409768,155.22625 84.04948,158.66108 C 100.6892,162.09593 118.20469,175.83527 126.96244,179.27011 C 135.72019,182.70494 191.76977,194.72687 218.04301,190.43333 C 244.31625,186.13979 293.35962,173.25914 295.98695,166.38947 C 298.61427,159.51979 137.47174,142.34561 138.34751,144.92173 z "
           id="path1315" />
        <path
           style="fill:#f8f800;fill-opacity:1;fill-rule:evenodd;stroke:#000000;stroke-width:0.23002515pt;stroke-linecap:butt;stroke-linejoin:miter;stroke-opacity:1"
           d="M 267.97966,159.1657 C 267.97966,159.1657 289.8376,142.53523 293.20076,137.03919 C 299.17417,127.27748 301.82902,118.81734 299.83789,142.8962 C 298.70005,156.65618 284.57248,165.02272 279.92649,164.37194 C 275.2805,163.72116 269.9708,159.1657 267.97966,159.1657 z "
           id="path2248"
           sodipodi:nodetypes="csssc" />
        <path
           style="fill:#19a724;fill-opacity:1;fill-rule:evenodd;stroke:#296510;stroke-width:2.76030159;stroke-linecap:butt;stroke-linejoin:miter;stroke-miterlimit:4;stroke-dasharray:none;stroke-opacity:1"
           d="M 94.558777,135.47593 C 94.558777,135.47593 123.72544,158.85831 156.73878,168.10689 C 193.52131,178.4114 228.38808,182.93955 261.83174,180.12882 C 292.48385,177.55269 295.11117,168.10688 295.11117,168.10688 C 295.11117,168.10688 282.85033,128.60626 217.16723,109.71465 C 151.48413,90.823049 94.558777,134.61723 94.558777,135.47593 z "
           id="path2190"
           sodipodi:nodetypes="csscsc" />
        <path
           style="fill:#218a2a;fill-opacity:1;fill-rule:evenodd;stroke:#296510;stroke-width:0.92010057;stroke-linecap:butt;stroke-linejoin:miter;stroke-miterlimit:4;stroke-dasharray:none;stroke-opacity:1"
           d="M 161.99343,106.27981 L 175.13005,122.59529 L 205.78216,124.31271 L 216.29146,109.71465 L 192.91088,105.03804"
           id="path2192"
           sodipodi:nodetypes="ccccc" />
        <path
           style="fill:#218a2a;fill-opacity:1;fill-rule:evenodd;stroke:#000000;stroke-width:0.23002515pt;stroke-linecap:butt;stroke-linejoin:miter;stroke-opacity:1"
           d="M 230.51922,122.86481 L 207.27135,123.35147 L 221.19977,142.72323 L 241.56482,147.07677 L 252.70239,139.48986 L 246.39501,129.53469 L 230.51922,122.86481 z "
           id="path2194"
           sodipodi:nodetypes="ccccccc" />
        <path
           style="fill:none;fill-opacity:0.75;fill-rule:evenodd;stroke:#000000;stroke-width:0.23002515pt;stroke-linecap:butt;stroke-linejoin:miter;stroke-opacity:1"
           d="M 220.72713,142.75128 L 194.57111,150.14926 L 174.4511,149.16286 L 163.38509,135.84649 L 175.9601,123.02332 L 207.14612,123.51651 L 220.72713,142.75128 z "
           id="path2206" />
        <path
           style="fill:#1f8c28;fill-opacity:1;fill-rule:evenodd;stroke:#000000;stroke-width:0.23002515pt;stroke-linecap:butt;stroke-linejoin:miter;stroke-opacity:1"
           d="M 240.84716,145.71047 L 249.90116,164.94523 L 220.22414,169.38402 L 199.60111,162.47923 L 195.07412,150.14926 L 220.72713,142.75128 L 240.84716,145.71047 z "
           id="path2208" />
        <path
           style="fill:none;fill-opacity:1;fill-rule:evenodd;stroke:#000000;stroke-width:0.23002515pt;stroke-linecap:butt;stroke-linejoin:miter;stroke-opacity:1"
           d="M 198.59512,160.50643 L 181.4931,169.87722 L 159.36109,161.98604 L 159.36109,150.64246 L 174.4511,148.66967 L 195.07412,149.16286 L 198.59512,160.50643 z "
           id="path2210" />
        <path
           style="fill:none;fill-opacity:0.75;fill-rule:evenodd;stroke:#000000;stroke-width:0.23002515pt;stroke-linecap:butt;stroke-linejoin:miter;stroke-opacity:1"
           d="M 163.88808,135.84649 L 135.21706,130.4213 C 135.21706,130.4213 127.16906,116.11852 133.20505,115.13213 C 139.24106,114.14573 162.37908,106.74774 162.37908,106.74774 L 176.4631,123.51651 L 163.88808,135.84649 z "
           id="path2212" />
        <path
           style="fill:#1f8c28;fill-opacity:1;fill-rule:evenodd;stroke:#000000;stroke-width:0.23002515pt;stroke-linecap:butt;stroke-linejoin:miter;stroke-opacity:1"
           d="M 246.38016,129.9281 L 265.49418,133.8737 L 239.84115,117.59812 L 230.78715,122.53012 L 246.38016,129.9281 z "
           id="path2214" />
        <path
           style="fill:#1f8c28;fill-opacity:1;fill-rule:evenodd;stroke:#000000;stroke-width:0.23002515pt;stroke-linecap:butt;stroke-linejoin:miter;stroke-opacity:1"
           d="M 252.41617,139.79209 L 277.06319,143.24448 L 288.63219,154.58805 L 249.39816,163.95883 L 241.85315,147.19007 L 252.41617,139.79209 z "
           id="path2216" />
        <path
           style="fill:none;fill-opacity:1;fill-rule:evenodd;stroke:#000000;stroke-width:0.23002515pt;stroke-linecap:butt;stroke-linejoin:miter;stroke-opacity:1"
           d="M 294.6682,167.41123 L 285.61419,154.09485 L 266.50018,159.52004 L 267.00318,178.7548 L 286.1172,175.3024 L 294.6682,167.41123 z "
           id="path2218" />
        <path
           style="fill:#1f8c28;fill-opacity:1;fill-rule:evenodd;stroke:#000000;stroke-width:0.23002515pt;stroke-linecap:butt;stroke-linejoin:miter;stroke-opacity:1"
           d="M 264.99118,159.52004 L 235.81715,168.89082 C 235.81715,168.89082 234.30815,179.7412 236.32015,179.7412 C 238.33215,179.7412 253.42217,178.7548 255.43417,179.248 C 257.44617,179.7412 265.49418,178.2616 265.49418,178.2616 L 267.00318,179.7412 L 264.99118,159.52004 z "
           id="path2220" />
        <path
           style="fill:#1f8c28;fill-opacity:1;fill-rule:evenodd;stroke:#000000;stroke-width:0.23002515pt;stroke-linecap:butt;stroke-linejoin:miter;stroke-opacity:1"
           d="M 233.30215,167.90442 L 235.81715,179.7412 L 207.64912,177.2752 L 221.73314,168.39762 L 197.08612,161.98604 L 179.9841,171.35682 C 179.9841,171.35682 181.99611,174.31601 185.51711,174.31601 C 189.03811,174.31601 208.65513,177.7684 208.65513,177.7684"
           id="path2222" />
        <path
           style="fill:#1f8c28;fill-opacity:1;fill-rule:evenodd;stroke:#000000;stroke-width:0.23002515pt;stroke-linecap:butt;stroke-linejoin:miter;stroke-opacity:1"
           d="M 180.48711,173.82281 L 177.4691,169.38402 L 159.36109,161.49284 L 145.27707,163.46563 L 163.38508,168.39763 L 180.48711,173.82281 z "
           id="path2224"
           sodipodi:nodetypes="cccccc" />
        <path
           style="fill:#1f8c28;fill-opacity:1;fill-rule:evenodd;stroke:#000000;stroke-width:0.23002515pt;stroke-linecap:butt;stroke-linejoin:miter;stroke-opacity:1"
           d="M 159.36109,150.64246 L 141.75607,143.24448 L 135.21706,130.4213 L 164.39109,135.84649 L 172.9421,148.17646 L 159.36109,150.64246 z "
           id="path2226" />
        <path
           style="fill:none;fill-opacity:0.75;fill-rule:evenodd;stroke:#000000;stroke-width:0.23002515pt;stroke-linecap:butt;stroke-linejoin:miter;stroke-opacity:1"
           d="M 145.27707,162.97243 L 128.67806,156.06765 L 128.67806,142.75128 L 142.25907,143.24448 L 158.35508,150.14926 L 159.36109,160.50643 L 145.27707,162.97243 z "
           id="path2228" />
        <path
           style="fill:#1f8c28;fill-opacity:1;fill-rule:evenodd;stroke:#000000;stroke-width:0.23002515pt;stroke-linecap:butt;stroke-linejoin:miter;stroke-opacity:1"
           d="M 128.67806,142.75128 L 114.59404,134.86009 L 117.61205,121.54371 L 131.19306,117.10493 L 133.20505,129.4349 L 141.75607,142.25807 L 128.67806,142.75128 z "
           id="path2230" />
        <path
           style="fill:#1f8c28;fill-opacity:1;fill-rule:evenodd;stroke:#000000;stroke-width:0.23002515pt;stroke-linecap:butt;stroke-linejoin:miter;stroke-opacity:1"
           d="M 128.17505,156.06765 L 102.01903,140.77848 L 114.59404,134.36689 L 129.68405,143.24448 L 128.17505,156.06765 z "
           id="path2232" />
        <path
           style="fill:none;fill-opacity:0.75;fill-rule:evenodd;stroke:#000000;stroke-width:0.23002515pt;stroke-linecap:butt;stroke-linejoin:miter;stroke-opacity:1"
           d="M 118.11504,121.54371 L 114.59404,134.36689 L 102.52203,140.28528 C 102.52203,140.28528 91.95902,136.33969 95.480022,134.36689 C 99.001033,132.3941 118.11504,121.05052 118.11504,121.54371 z "
           id="path2234" />
        <path
           style="fill:#f8f800;fill-opacity:1;fill-rule:evenodd;stroke:#000000;stroke-width:0.22741928pt;stroke-linecap:butt;stroke-linejoin:miter;stroke-opacity:1"
           d="M 143.00935,164.75899 C 143.00935,164.75899 122.47005,196.50695 113.57131,198.51472 C 104.67262,200.52247 104.37472,210.34518 107.9984,212.96112 C 111.62206,215.57704 117.90145,216.09499 123.5041,215.32141 C 129.10675,214.54782 134.16339,207.35743 134.51254,204.79888 C 134.86169,202.24036 164.13257,173.18212 163.98698,171.47097 C 163.84135,169.75981 149.10673,163.13804 143.00935,164.75899 z "
           id="path2242"
           sodipodi:nodetypes="csssssc" />
        <path
           sodipodi:type="arc"
           style="fill:#000000;fill-opacity:1;fill-rule:evenodd;stroke:#000000;stroke-width:3;stroke-linejoin:round;stroke-miterlimit:4;stroke-dasharray:none;stroke-dashoffset:0;stroke-opacity:1"
           id="path2252"
           sodipodi:cx="135.71428"
           sodipodi:cy="358.07648"
           sodipodi:rx="7.1428571"
           sodipodi:ry="7.1428571"
           d="M 142.85714 358.07648 A 7.1428571 7.1428571 0 1 1  128.57142,358.07648 A 7.1428571 7.1428571 0 1 1  142.85714 358.07648 z"
           transform="matrix(0.4684367,0,0,0.4593088,-17.937755,-35.23785)" />
        <path
           sodipodi:type="arc"
           style="fill:#000000;fill-opacity:1;fill-rule:evenodd;stroke:#000000;stroke-width:3;stroke-linejoin:round;stroke-miterlimit:4;stroke-dasharray:none;stroke-dashoffset:0;stroke-opacity:1"
           id="path2256"
           sodipodi:cx="135.71428"
           sodipodi:cy="358.07648"
           sodipodi:rx="7.1428571"
           sodipodi:ry="7.1428571"
           d="M 142.85714 358.07648 A 7.1428571 7.1428571 0 1 1  128.57142,358.07648 A 7.1428571 7.1428571 0 1 1  142.85714 358.07648 z"
           transform="matrix(0.4684367,0,0,0.4593088,-31.212004,-37.971125)" />
        <path
           style="fill:none;fill-opacity:0.75;fill-rule:evenodd;stroke:#000000;stroke-width:1.37344873;stroke-linecap:butt;stroke-linejoin:miter;stroke-miterlimit:4;stroke-dasharray:none;stroke-opacity:1"
           d="M 29.79439,142.45667 C 29.79439,142.45667 32.783463,154.73148 50.717901,144.21021"
           id="path2282"
           sodipodi:nodetypes="cc" />
        <text
           xml:space="preserve"
           style="font-size:3.68040633px;font-style:normal;font-variant:normal;font-weight:normal;font-stretch:normal;text-align:start;line-height:125%;writing-mode:lr-tb;text-anchor:start;fill:#16e355;fill-opacity:1;stroke:none;stroke-width:1pt;stroke-linecap:butt;stroke-linejoin:miter;stroke-opacity:1;font-family:Bitstream Vera Sans"
           x="129.29416"
           y="175.06181"
           id="text2284"
           sodipodi:linespacing="125%"
           transform="matrix(0.9951677,-0.1684504,0.1717981,0.9757758,0,0)"><tspan
             sodipodi:role="line"
             id="tspan2286"
             x="129.29416"
             y="175.06181">daniel</tspan></text>
        <path
           style="fill:none;fill-opacity:0.75;fill-rule:evenodd;stroke:#000000;stroke-width:1pt;stroke-linecap:butt;stroke-linejoin:miter;stroke-opacity:1"
           d="M 229.53201,156.05523 C 229.82643,156.48687 232.82183,155.90944 234.40395,155.5139"
           id="path1345" />
      </g>
      <g
         transform="matrix(0.8222697,0,0,0.9479192,20.223149,58.988943)"
         id="g3707">
        <text
           id="text2173"
           style="font-size:83.66917419px;font-style:normal;font-weight:normal;line-height:125%;fill:#000000;fill-opacity:1;stroke:none;stroke-width:1px;stroke-linecap:butt;stroke-linejoin:miter;stroke-opacity:1;font-family:Monaco"
           xml:space="preserve"
           x="71.787781"
           y="333.20309"
           sodipodi:linespacing="125%"
           inkscape:export-xdpi="21.908476"
           inkscape:export-ydpi="21.908476"
           transform="scale(1.1878141,0.8418826)"><tspan
             y="333.20309"
             x="71.787781"
             sodipodi:role="line"
             id="tspan3686"><tspan
               id="tspan2181"
               style="font-size:83.66917419px;fill:#008000;font-family:Ruach LET">Open </tspan><tspan
               style="font-size:83.66917419px;font-style:oblique;font-variant:normal;font-weight:normal;font-stretch:normal;text-align:start;line-height:125%;writing-mode:lr-tb;text-anchor:start;font-family:Courier"
               id="tspan3688" /></tspan></text>
        <text
           id="text3699"
           style="font-size:83.66917419px;font-style:normal;font-weight:normal;line-height:125%;fill:#000000;fill-opacity:1;stroke:none;stroke-width:1px;stroke-linecap:butt;stroke-linejoin:miter;stroke-opacity:1;font-family:Monaco"
           xml:space="preserve"
           x="28.418009"
           y="402.98022"
           sodipodi:linespacing="125%"
           inkscape:export-xdpi="21.908476"
           inkscape:export-ydpi="21.908476"
           transform="scale(1.1878141,0.8418826)"><tspan
             y="402.98022"
             x="28.418009"
             sodipodi:role="line"
             id="tspan3701"><tspan
               style="font-size:83.66917419px;font-style:oblique;font-variant:normal;font-weight:normal;font-stretch:normal;text-align:start;line-height:125%;writing-mode:lr-tb;text-anchor:start;font-family:Courier"
               id="tspan3705">GrADS </tspan></tspan></text>
      </g>
    </g>
  </g>
</svg>
