<?xml version="1.0" encoding="UTF-8" standalone="no"?>
<!-- Created with Inkscape (http://www.inkscape.org/) -->
<svg
   xmlns:dc="http://purl.org/dc/elements/1.1/"
   xmlns:cc="http://web.resource.org/cc/"
   xmlns:rdf="http://www.w3.org/1999/02/22-rdf-syntax-ns#"
   xmlns:svg="http://www.w3.org/2000/svg"
   xmlns="http://www.w3.org/2000/svg"
   xmlns:sodipodi="http://sodipodi.sourceforge.net/DTD/sodipodi-0.dtd"
   xmlns:inkscape="http://www.inkscape.org/namespaces/inkscape"
   width="744.09448819"
   height="1052.3622047"
   id="svg2"
   sodipodi:version="0.32"
   inkscape:version="0.45"
   sodipodi:docbase="/home/daniel/images/source/dad birthday 06"
   sodipodi:docname="birthday card.svg"
   inkscape:export-filename="/home/daniel/birthday card.png"
   inkscape:export-xdpi="196.34"
   inkscape:export-ydpi="196.34"
   inkscape:output_extension="org.inkscape.output.svg.inkscape"
   sodipodi:modified="true">
  <defs
     id="defs4" />
  <sodipodi:namedview
     id="base"
     pagecolor="#ffffff"
     bordercolor="#666666"
     borderopacity="1.0"
     inkscape:pageopacity="0.0"
     inkscape:pageshadow="2"
     inkscape:zoom="1.8473111"
     inkscape:cx="340.98536"
     inkscape:cy="606.34172"
     inkscape:document-units="px"
     inkscape:current-layer="layer1"
     inkscape:window-width="1044"
     inkscape:window-height="863"
     inkscape:window-x="55"
     inkscape:window-y="20" />
  <metadata
     id="metadata7">
    <rdf:RDF>
      <cc:Work
         rdf:about="">
        <dc:format>image/svg+xml</dc:format>
        <dc:type
           rdf:resource="http://purl.org/dc/dcmitype/StillImage" />
      </cc:Work>
    </rdf:RDF>
  </metadata>
  <g
     inkscape:label="Layer 1"
     inkscape:groupmode="layer"
     id="layer1">
    <path
       style="fill:#f8f800;fill-opacity:1;fill-rule:evenodd;stroke:#000000;stroke-width:0.22207022pt;stroke-linecap:butt;stroke-linejoin:miter;stroke-opacity:1"
       d="M 444.87809,470.97862 C 444.87809,470.97862 464.19514,503.1661 472.56432,505.20168 C 480.93347,507.23723 481.21364,517.19592 477.80559,519.84807 C 474.39757,522.50021 468.49187,523.02532 463.22261,522.24106 C 457.95337,521.45674 453.19763,514.1668 452.86927,511.57285 C 452.5409,508.97889 425.01189,479.51836 425.14882,477.78353 C 425.28575,476.04869 439.14356,469.33522 444.87809,470.97862 z "
       id="path2250"
       sodipodi:nodetypes="csssssc" />
    <path
       style="fill:#f8f800;fill-opacity:1;fill-rule:evenodd;stroke:#000000;stroke-width:0.22215221pt;stroke-linecap:butt;stroke-linejoin:miter;stroke-opacity:1"
       d="M 403.3379,463.52796 C 403.3379,463.52796 385.6942,493.89716 377.05291,495.72201 C 368.41166,497.54685 368.95042,507.01926 372.76071,509.58854 C 376.57097,512.15782 382.8329,512.73659 388.31511,512.06088 C 393.7973,511.38514 398.19416,504.51211 398.32274,502.04822 C 398.45131,499.58436 424.96948,471.91997 424.68007,470.26736 C 424.39064,468.61475 409.23807,462.041 403.3379,463.52796 z "
       id="path2236"
       sodipodi:nodetypes="csssssc" />
    <path
       style="fill:#f8f800;fill-opacity:1;fill-rule:evenodd;stroke:#000000;stroke-width:0.24716785pt;stroke-linecap:butt;stroke-linejoin:miter;stroke-opacity:1"
       d="M 259.8949,457.33293 C 259.8949,457.33293 230.35078,486.14254 220.52392,486.07842 C 210.69712,486.0143 207.89899,496.43105 211.03158,500.12417 C 214.16414,503.81727 220.60876,505.92882 226.67161,506.49306 C 232.73445,507.05728 239.84964,500.63284 240.86284,497.98696 C 241.87605,495.3411 279.88302,471.57105 280.16366,469.70741 C 280.44426,467.84375 266.6903,457.11495 259.8949,457.33293 z "
       id="path2244"
       sodipodi:nodetypes="csssssc" />
    <path
       style="fill:#fffa0b;fill-opacity:1;fill-rule:evenodd;stroke:#000000;stroke-width:0.25pt;stroke-linecap:butt;stroke-linejoin:miter;stroke-opacity:1"
       d="M 294.06176,453.87109 C 294.06176,453.87109 251.64901,450.10107 241.28145,438.791 C 230.91388,427.48094 215.83379,419.94089 199.8112,419.94089 C 183.7886,419.94089 174.36355,426.53843 171.53603,437.8485 C 168.70851,449.15857 176.24856,462.35365 191.32865,467.06617 C 206.40874,471.7787 217.71881,465.18116 235.62641,468.95118 C 253.53402,472.72121 272.38413,487.8013 281.80919,491.57132 C 291.23425,495.34134 351.55461,508.53642 379.82978,503.82389 C 408.10495,499.11137 460.88526,484.97378 463.71278,477.43374 C 466.5403,469.89369 293.11926,451.04358 294.06176,453.87109 z "
       id="path1315" />
    <path
       style="fill:#f8f800;fill-opacity:1;fill-rule:evenodd;stroke:#000000;stroke-width:0.25pt;stroke-linecap:butt;stroke-linejoin:miter;stroke-opacity:1"
       d="M 433.57143,469.50504 C 433.57143,469.50504 457.09487,451.2517 460.71429,445.21933 C 467.14286,434.50504 470,425.21933 467.85715,451.6479 C 466.63261,466.75063 451.42857,475.93361 446.42857,475.21933 C 441.42857,474.50504 435.71429,469.50504 433.57143,469.50504 z "
       id="path2248"
       sodipodi:nodetypes="csssc" />
    <path
       style="fill:#19a724;fill-opacity:1;fill-rule:evenodd;stroke-width:3;stroke-linecap:butt;stroke-linejoin:miter;stroke-opacity:1;stroke:#296510;stroke-miterlimit:4;stroke-dasharray:none"
       d="M 246.93648,443.50353 C 246.93648,443.50353 278.32554,469.16766 313.85438,479.31875 C 353.43962,490.62882 390.96311,495.59884 426.95506,492.51383 C 459.94276,489.68631 462.77027,479.31874 462.77027,479.31874 C 462.77027,479.31874 449.5752,435.96349 378.88727,415.22836 C 308.19935,394.49324 246.93648,442.56103 246.93648,443.50353 z "
       id="path2190"
       sodipodi:nodetypes="csscsc" />
    <path
       style="fill:#218a2a;fill-opacity:1;fill-rule:evenodd;stroke:#296510;stroke-width:1;stroke-linecap:butt;stroke-linejoin:miter;stroke-opacity:1;stroke-miterlimit:4;stroke-dasharray:none"
       d="M 319.50942,411.45834 L 333.647,429.36595 L 366.6347,431.25096 L 377.94477,415.22836 L 352.78267,410.09539"
       id="path2192"
       sodipodi:nodetypes="ccccc" />
    <path
       style="fill:#218a2a;fill-opacity:1;fill-rule:evenodd;stroke:#000000;stroke-width:0.25pt;stroke-linecap:butt;stroke-linejoin:miter;stroke-opacity:1"
       d="M 393.25664,429.66177 L 368.23736,430.19592 L 383.22708,451.45805 L 405.14387,456.23642 L 417.13009,447.90915 L 410.34211,436.98252 L 393.25664,429.66177 z "
       id="path2194"
       sodipodi:nodetypes="ccccccc" />
    <path
       style="fill:none;fill-opacity:0.75;fill-rule:evenodd;stroke:#000000;stroke-width:0.25pt;stroke-linecap:butt;stroke-linejoin:miter;stroke-opacity:1"
       d="M 382.71843,451.48883 L 354.56941,459.60874 L 332.91632,458.52608 L 321.00712,443.91025 L 334.5403,429.83574 L 368.10259,430.37706 L 382.71843,451.48883 z "
       id="path2206" />
    <path
       style="fill:#1f8c28;fill-opacity:1;fill-rule:evenodd;stroke:#000000;stroke-width:0.25pt;stroke-linecap:butt;stroke-linejoin:miter;stroke-opacity:1"
       d="M 404.37153,454.73679 L 414.11542,475.84856 L 382.17711,480.72051 L 359.98268,473.14192 L 355.11074,459.60874 L 382.71843,451.48883 L 404.37153,454.73679 z "
       id="path2208" />
    <path
       style="fill:none;fill-opacity:1;fill-rule:evenodd;stroke:#000000;stroke-width:0.25pt;stroke-linecap:butt;stroke-linejoin:miter;stroke-opacity:1"
       d="M 358.90003,470.97661 L 340.4949,481.26183 L 316.6765,472.6006 L 316.6765,460.15007 L 332.91632,457.98476 L 355.11074,458.52608 L 358.90003,470.97661 z "
       id="path2210" />
    <path
       style="fill:none;fill-opacity:0.75;fill-rule:evenodd;stroke:#000000;stroke-width:0.25pt;stroke-linecap:butt;stroke-linejoin:miter;stroke-opacity:1"
       d="M 321.54844,443.91025 L 290.69278,437.95565 C 290.69278,437.95565 282.03155,422.25715 288.52747,421.1745 C 295.0234,420.09184 319.92446,411.97193 319.92446,411.97193 L 335.08163,430.37706 L 321.54844,443.91025 z "
       id="path2212" />
    <path
       style="fill:#1f8c28;fill-opacity:1;fill-rule:evenodd;stroke:#000000;stroke-width:0.25pt;stroke-linecap:butt;stroke-linejoin:miter;stroke-opacity:1"
       d="M 410.32613,437.41432 L 430.89657,441.74494 L 403.28887,423.88113 L 393.54498,429.29441 L 410.32613,437.41432 z "
       id="path2214" />
    <path
       style="fill:#1f8c28;fill-opacity:1;fill-rule:evenodd;stroke:#000000;stroke-width:0.25pt;stroke-linecap:butt;stroke-linejoin:miter;stroke-opacity:1"
       d="M 416.82206,448.24087 L 443.3471,452.03016 L 455.79762,464.48069 L 413.57409,474.76591 L 405.45418,456.36078 L 416.82206,448.24087 z "
       id="path2216" />
    <path
       style="fill:none;fill-opacity:1;fill-rule:evenodd;stroke:#000000;stroke-width:0.25pt;stroke-linecap:butt;stroke-linejoin:miter;stroke-opacity:1"
       d="M 462.29355,478.5552 L 452.54966,463.93936 L 431.97922,469.89396 L 432.52055,491.00573 L 453.09099,487.21643 L 462.29355,478.5552 z "
       id="path2218" />
    <path
       style="fill:#1f8c28;fill-opacity:1;fill-rule:evenodd;stroke:#000000;stroke-width:0.25pt;stroke-linecap:butt;stroke-linejoin:miter;stroke-opacity:1"
       d="M 430.35524,469.89396 L 398.95825,480.17918 C 398.95825,480.17918 397.33427,492.08838 399.49958,492.08838 C 401.66489,492.08838 417.90471,491.00573 420.07002,491.54705 C 422.23533,492.08838 430.89657,490.4644 430.89657,490.4644 L 432.52055,492.08838 L 430.35524,469.89396 z "
       id="path2220" />
    <path
       style="fill:#1f8c28;fill-opacity:1;fill-rule:evenodd;stroke:#000000;stroke-width:0.25pt;stroke-linecap:butt;stroke-linejoin:miter;stroke-opacity:1"
       d="M 396.25162,479.09652 L 398.95825,492.08838 L 368.64392,489.38174 L 383.80109,479.63785 L 357.27605,472.6006 L 338.87092,482.88582 C 338.87092,482.88582 341.03623,486.13378 344.82552,486.13378 C 348.61481,486.13378 369.72658,489.92307 369.72658,489.92307"
       id="path2222" />
    <path
       style="fill:#1f8c28;fill-opacity:1;fill-rule:evenodd;stroke:#000000;stroke-width:0.25pt;stroke-linecap:butt;stroke-linejoin:miter;stroke-opacity:1"
       d="M 339.41225,485.59245 L 336.16428,480.72051 L 316.6765,472.05927 L 301.51933,474.22458 L 321.00711,479.63786 L 339.41225,485.59245 z "
       id="path2224"
       sodipodi:nodetypes="cccccc" />
    <path
       style="fill:#1f8c28;fill-opacity:1;fill-rule:evenodd;stroke:#000000;stroke-width:0.25pt;stroke-linecap:butt;stroke-linejoin:miter;stroke-opacity:1"
       d="M 316.6765,460.15007 L 297.73004,452.03016 L 290.69278,437.95565 L 322.08977,443.91025 L 331.29234,457.44343 L 316.6765,460.15007 z "
       id="path2226" />
    <path
       style="fill:none;fill-opacity:0.75;fill-rule:evenodd;stroke:#000000;stroke-width:0.25pt;stroke-linecap:butt;stroke-linejoin:miter;stroke-opacity:1"
       d="M 301.51933,473.68325 L 283.65553,466.10467 L 283.65553,451.48883 L 298.27137,452.03016 L 315.59384,459.60874 L 316.6765,470.97661 L 301.51933,473.68325 z "
       id="path2228" />
    <path
       style="fill:#1f8c28;fill-opacity:1;fill-rule:evenodd;stroke:#000000;stroke-width:0.25pt;stroke-linecap:butt;stroke-linejoin:miter;stroke-opacity:1"
       d="M 283.65553,451.48883 L 268.49836,442.82759 L 271.74633,428.21175 L 286.36217,423.33981 L 288.52747,436.87299 L 297.73004,450.9475 L 283.65553,451.48883 z "
       id="path2230" />
    <path
       style="fill:#1f8c28;fill-opacity:1;fill-rule:evenodd;stroke:#000000;stroke-width:0.25pt;stroke-linecap:butt;stroke-linejoin:miter;stroke-opacity:1"
       d="M 283.1142,466.10467 L 254.96518,449.32352 L 268.49836,442.28626 L 284.73818,452.03016 L 283.1142,466.10467 z "
       id="path2232" />
    <path
       style="fill:none;fill-opacity:0.75;fill-rule:evenodd;stroke:#000000;stroke-width:0.25pt;stroke-linecap:butt;stroke-linejoin:miter;stroke-opacity:1"
       d="M 272.28765,428.21175 L 268.49836,442.28626 L 255.50651,448.78219 C 255.50651,448.78219 244.13863,444.45157 247.92792,442.28626 C 251.71722,440.12096 272.28765,427.67043 272.28765,428.21175 z "
       id="path2234" />
    <path
       style="fill:#f8f800;fill-opacity:1;fill-rule:evenodd;stroke:#000000;stroke-width:0.24716785pt;stroke-linecap:butt;stroke-linejoin:miter;stroke-opacity:1"
       d="M 299.07882,475.64415 C 299.07882,475.64415 276.97449,510.4902 267.3977,512.6939 C 257.82096,514.89758 257.50036,525.67883 261.40016,528.55004 C 265.29993,531.42123 272.05778,531.98973 278.08734,531.14066 C 284.11689,530.29158 289.55883,522.39952 289.93458,519.5913 C 290.31034,516.7831 321.81155,484.88924 321.65487,483.01111 C 321.49815,481.13297 305.6408,473.86502 299.07882,475.64415 z "
       id="path2242"
       sodipodi:nodetypes="csssssc" />
    <path
       sodipodi:type="arc"
       style="opacity:1;fill:#000000;fill-opacity:1;fill-rule:evenodd;stroke:#000000;stroke-width:3;stroke-linejoin:round;stroke-miterlimit:4;stroke-dasharray:none;stroke-dashoffset:0;stroke-opacity:1"
       id="path2252"
       sodipodi:cx="135.71428"
       sodipodi:cy="358.07648"
       sodipodi:rx="7.1428571"
       sodipodi:ry="7.1428571"
       d="M 142.85714 358.07648 A 7.1428571 7.1428571 0 1 1  128.57142,358.07648 A 7.1428571 7.1428571 0 1 1  142.85714 358.07648 z"
       transform="matrix(0.50413,0,0,0.50413,125.8681,256.1308)" />
    <path
       sodipodi:type="arc"
       style="opacity:1;fill:#000000;fill-opacity:1;fill-rule:evenodd;stroke:#000000;stroke-width:3;stroke-linejoin:round;stroke-miterlimit:4;stroke-dasharray:none;stroke-dashoffset:0;stroke-opacity:1"
       id="path2256"
       sodipodi:cx="135.71428"
       sodipodi:cy="358.07648"
       sodipodi:rx="7.1428571"
       sodipodi:ry="7.1428571"
       d="M 142.85714 358.07648 A 7.1428571 7.1428571 0 1 1  128.57142,358.07648 A 7.1428571 7.1428571 0 1 1  142.85714 358.07648 z"
       transform="matrix(0.50413,0,0,0.50413,111.5824,253.1308)" />
    <path
       style="fill:none;fill-opacity:0.75;fill-rule:evenodd;stroke:#000000;stroke-width:1.49271584;stroke-linecap:butt;stroke-linejoin:miter;stroke-miterlimit:4;stroke-dasharray:none;stroke-opacity:1"
       d="M 177.23727,451.16547 C 177.23727,451.16547 180.4541,464.63811 199.75508,453.09013"
       id="path2282"
       sodipodi:nodetypes="cc" />
    <text
       xml:space="preserve"
       style="font-size:4.00000477px;font-style:normal;font-variant:normal;font-weight:normal;font-stretch:normal;text-align:start;line-height:125%;writing-mode:lr-tb;text-anchor:start;fill:#16e355;fill-opacity:1;stroke:none;stroke-width:1pt;stroke-linecap:butt;stroke-linejoin:miter;stroke-opacity:1;font-family:Bitstream Vera Sans"
       x="233.42697"
       y="505.47021"
       id="text2284"
       sodipodi:linespacing="125%"
       transform="matrix(0.985424,-0.170116,0.170116,0.985424,0,0)"><tspan
         sodipodi:role="line"
         id="tspan2286"
         x="233.42697"
         y="505.47021">daniel</tspan></text>
    <path
       style="fill:none;fill-opacity:0.75;fill-rule:evenodd;stroke:#000000;stroke-width:1pt;stroke-linecap:butt;stroke-linejoin:miter;stroke-opacity:1"
       d="M 107.18281,422.25716 C 108.06347,425.04837 104.13014,414.62549 108.26547,424.9638"
       id="path1339" />
    <path
       style="fill:none;fill-opacity:0.75;fill-rule:evenodd;stroke:#000000;stroke-width:1pt;stroke-linecap:butt;stroke-linejoin:miter;stroke-opacity:1"
       d="M 363.77197,634.45748 C 363.86643,634.41006 366.36702,635.56964 367.56126,636.08146"
       id="path1341" />
    <path
       style="fill:none;fill-opacity:0.75;fill-rule:evenodd;stroke:#000000;stroke-width:1pt;stroke-linecap:butt;stroke-linejoin:miter;stroke-opacity:1"
       d="M 590.58813,416.30256 C 590.58813,419.30993 590.58813,408.42324 590.58813,419.0092"
       id="path1343" />
    <path
       style="fill:none;fill-opacity:0.75;fill-rule:evenodd;stroke:#000000;stroke-width:1pt;stroke-linecap:butt;stroke-linejoin:miter;stroke-opacity:1"
       d="M 328.04437,271.76816 C 328.33879,272.1998 331.33419,271.62237 332.91631,271.22683"
       id="path1345" />
  </g>
</svg>
